<svg width="30" height="30" viewBox="0 0 30 30" fill="none" xmlns="http://www.w3.org/2000/svg">
<path fill-rule="evenodd" clip-rule="evenodd" d="M3.75 25.3125V13.125H5.625V25.3125C5.625 25.8302 6.04473 26.25 6.5625 26.25H23.4375C23.9553 26.25 24.375 25.8302 24.375 25.3125V13.125H26.25V25.3125C26.25 26.8658 24.9908 28.125 23.4375 28.125H6.5625C5.0092 28.125 3.75 26.8658 3.75 25.3125Z" fill="white"/>
<path fill-rule="evenodd" clip-rule="evenodd" d="M24.375 4.68748V11.25L20.625 7.49998V4.68748C20.625 4.16971 21.0447 3.74998 21.5625 3.74998H23.4375C23.9553 3.74998 24.375 4.16971 24.375 4.68748Z" fill="white"/>
<path fill-rule="evenodd" clip-rule="evenodd" d="M13.6742 2.81248C14.4064 2.08025 15.5936 2.08025 16.3258 2.81248L28.7879 15.2746C29.154 15.6407 29.154 16.2343 28.7879 16.6004C28.4218 16.9665 27.8282 16.9665 27.4621 16.6004L15 4.1383L2.53791 16.6004C2.1718 16.9665 1.5782 16.9665 1.21209 16.6004C0.845971 16.2343 0.845971 15.6407 1.21209 15.2746L13.6742 2.81248Z" fill="white"/>
</svg>
