<svg width="30" height="30" viewBox="0 0 30 30" fill="none" xmlns="http://www.w3.org/2000/svg">
<path d="M1.875 6.5625C1.875 5.0092 3.1342 3.75 4.6875 3.75H9.86987C11.6657 3.75 13.1714 4.79992 14.2039 5.96996C14.9723 6.84072 15.8976 7.5 16.875 7.5H25.3138C26.868 7.5 28.125 8.76005 28.125 10.3125V23.4375C28.125 24.9908 26.8658 26.25 25.3125 26.25H4.6875C3.1342 26.25 1.875 24.9908 1.875 23.4375V6.5625ZM4.6875 5.625C4.16973 5.625 3.75 6.04473 3.75 6.5625V11.25H26.25V10.3125C26.25 9.79389 25.8307 9.375 25.3138 9.375H16.875C15.0677 9.375 13.6678 8.19613 12.798 7.2106C11.9509 6.25063 10.9148 5.625 9.86987 5.625H4.6875ZM26.25 13.125H3.75V23.4375C3.75 23.9553 4.16973 24.375 4.6875 24.375H25.3125C25.8303 24.375 26.25 23.9553 26.25 23.4375V13.125Z" fill="white"/>
</svg>
