<svg width="30" height="30" viewBox="0 0 30 30" fill="none" xmlns="http://www.w3.org/2000/svg">
<path d="M7.5 3.75V7.5H3.75V3.75H7.5ZM9.375 26.25V22.5C9.375 21.4645 8.53553 20.625 7.5 20.625H3.75C2.71447 20.625 1.875 21.4645 1.875 22.5V26.25C1.875 27.2855 2.71447 28.125 3.75 28.125H7.5C8.53553 28.125 9.375 27.2855 9.375 26.25ZM9.375 16.875V13.125C9.375 12.0895 8.53553 11.25 7.5 11.25H3.75C2.71447 11.25 1.875 12.0895 1.875 13.125V16.875C1.875 17.9105 2.71447 18.75 3.75 18.75H7.5C8.53553 18.75 9.375 17.9105 9.375 16.875ZM9.375 7.5V3.75C9.375 2.71447 8.53553 1.875 7.5 1.875H3.75C2.71447 1.875 1.875 2.71447 1.875 3.75V7.5C1.875 8.53553 2.71447 9.375 3.75 9.375H7.5C8.53553 9.375 9.375 8.53553 9.375 7.5ZM18.75 26.25V22.5C18.75 21.4645 17.9105 20.625 16.875 20.625H13.125C12.0895 20.625 11.25 21.4645 11.25 22.5V26.25C11.25 27.2855 12.0895 28.125 13.125 28.125H16.875C17.9105 28.125 18.75 27.2855 18.75 26.25ZM18.75 16.875V13.125C18.75 12.0895 17.9105 11.25 16.875 11.25H13.125C12.0895 11.25 11.25 12.0895 11.25 13.125V16.875C11.25 17.9105 12.0895 18.75 13.125 18.75H16.875C17.9105 18.75 18.75 17.9105 18.75 16.875ZM18.75 7.5V3.75C18.75 2.71447 17.9105 1.875 16.875 1.875H13.125C12.0895 1.875 11.25 2.71447 11.25 3.75V7.5C11.25 8.53553 12.0895 9.375 13.125 9.375H16.875C17.9105 9.375 18.75 8.53553 18.75 7.5ZM16.875 3.75V7.5H13.125V3.75H16.875ZM26.25 3.75V7.5H22.5V3.75H26.25ZM7.5 13.125V16.875H3.75V13.125H7.5ZM16.875 13.125V16.875H13.125V13.125H16.875ZM26.25 13.125H22.5V16.875H26.25V13.125ZM7.5 22.5V26.25H3.75V22.5H7.5ZM16.875 22.5V26.25H13.125V22.5H16.875ZM26.25 22.5V26.25H22.5V22.5H26.25ZM22.5 1.875C21.4645 1.875 20.625 2.71447 20.625 3.75V7.5C20.625 8.53553 21.4645 9.375 22.5 9.375H26.25C27.2855 9.375 28.125 8.53553 28.125 7.5V3.75C28.125 2.71447 27.2855 1.875 26.25 1.875H22.5ZM20.625 13.125C20.625 12.0895 21.4645 11.25 22.5 11.25H26.25C27.2855 11.25 28.125 12.0895 28.125 13.125V16.875C28.125 17.9105 27.2855 18.75 26.25 18.75H22.5C21.4645 18.75 20.625 17.9105 20.625 16.875V13.125ZM22.5 20.625C21.4645 20.625 20.625 21.4645 20.625 22.5V26.25C20.625 27.2855 21.4645 28.125 22.5 28.125H26.25C27.2855 28.125 28.125 27.2855 28.125 26.25V22.5C28.125 21.4645 27.2855 20.625 26.25 20.625H22.5Z" fill="white"/>
</svg>
