<svg width="30" height="30" viewBox="0 0 30 30" fill="none" xmlns="http://www.w3.org/2000/svg">
<path d="M23.4375 5.625C23.9553 5.625 24.375 6.04473 24.375 6.5625C24.375 7.08027 23.9553 7.5 23.4375 7.5H14.0625C13.5447 7.5 13.125 7.08027 13.125 6.5625C13.125 6.04473 13.5447 5.625 14.0625 5.625H23.4375Z" fill="white"/>
<path d="M23.4375 11.25C23.9553 11.25 24.375 11.6697 24.375 12.1875C24.375 12.7053 23.9553 13.125 23.4375 13.125H14.0625C13.5447 13.125 13.125 12.7053 13.125 12.1875C13.125 11.6697 13.5447 11.25 14.0625 11.25H23.4375Z" fill="white"/>
<path d="M24.375 17.8125C24.375 17.2947 23.9553 16.875 23.4375 16.875H14.0625C13.5447 16.875 13.125 17.2947 13.125 17.8125C13.125 18.3303 13.5447 18.75 14.0625 18.75H23.4375C23.9553 18.75 24.375 18.3303 24.375 17.8125Z" fill="white"/>
<path d="M23.4375 22.5C23.9553 22.5 24.375 22.9197 24.375 23.4375C24.375 23.9553 23.9553 24.375 23.4375 24.375H14.0625C13.5447 24.375 13.125 23.9553 13.125 23.4375C13.125 22.9197 13.5447 22.5 14.0625 22.5H23.4375Z" fill="white"/>
<path d="M30 3.75C30 1.67893 28.3211 0 26.25 0H3.75C1.67893 0 0 1.67893 0 3.75V26.25C0 28.3211 1.67893 30 3.75 30H26.25C28.3211 30 30 28.3211 30 26.25V3.75ZM7.5 1.875V28.125H3.75C2.71447 28.125 1.875 27.2855 1.875 26.25V3.75C1.875 2.71447 2.71447 1.875 3.75 1.875H7.5ZM9.375 1.875H26.25C27.2855 1.875 28.125 2.71447 28.125 3.75V26.25C28.125 27.2855 27.2855 28.125 26.25 28.125H9.375V1.875Z" fill="white"/>
</svg>
