<svg width="24" height="24" viewBox="0 0 24 24" fill="none" xmlns="http://www.w3.org/2000/svg">
<path d="M1.02459 2.35041C0.658471 1.9843 0.658471 1.3907 1.02459 1.02459C1.3907 0.658471 1.9843 0.658471 2.35041 1.02459L12 10.6742L21.6496 1.02459C22.0157 0.658471 22.6093 0.658471 22.9754 1.02459C23.3415 1.3907 23.3415 1.9843 22.9754 2.35041L13.3258 12L22.9754 21.6496C23.3415 22.0157 23.3415 22.6093 22.9754 22.9754C22.6093 23.3415 22.0157 23.3415 21.6496 22.9754L12 13.3258L2.35041 22.9754C1.9843 23.3415 1.39071 23.3415 1.02459 22.9754C0.658472 22.6093 0.658472 22.0157 1.02459 21.6496L10.6742 12L1.02459 2.35041Z" fill="white"/>
</svg>
