<svg width="16" height="16" viewBox="0 0 16 16" fill="none" xmlns="http://www.w3.org/2000/svg">
<path d="M10.7904 12.9117L9.17617 11.2975C8.80858 11.4286 8.41263 11.5 8 11.5C6.067 11.5 4.5 9.933 4.5 8C4.5 7.58737 4.5714 7.19142 4.70253 6.82383L2.64112 4.76242C0.938717 6.27902 0 8 0 8C0 8 3 13.5 8 13.5C9.01539 13.5 9.9483 13.2732 10.7904 12.9117Z" fill="black"/>
<path d="M5.20967 3.08834C6.05172 2.72682 6.98462 2.5 8 2.5C13 2.5 16 8 16 8C16 8 15.0613 9.72097 13.3589 11.2376L11.2975 9.17614C11.4286 8.80856 11.5 8.41262 11.5 8C11.5 6.067 9.933 4.5 8 4.5C7.58738 4.5 7.19144 4.5714 6.82386 4.70252L5.20967 3.08834Z" fill="black"/>
<path d="M5.52485 7.64615C5.50847 7.76175 5.5 7.87988 5.5 8C5.5 9.38071 6.61929 10.5 8 10.5C8.12012 10.5 8.23825 10.4915 8.35385 10.4752L5.52485 7.64615Z" fill="black"/>
<path d="M10.4752 8.35382L7.64618 5.52484C7.76176 5.50847 7.87989 5.5 8 5.5C9.38071 5.5 10.5 6.61929 10.5 8C10.5 8.12011 10.4915 8.23823 10.4752 8.35382Z" fill="black"/>
<path d="M13.6464 14.3536L1.64645 2.35355L2.35355 1.64645L14.3536 13.6464L13.6464 14.3536Z" fill="black"/>
</svg>
