<svg width="30" height="31" viewBox="0 0 30 31" fill="none" xmlns="http://www.w3.org/2000/svg">
<path fill-rule="evenodd" clip-rule="evenodd" d="M26.25 8.4375V26.25C26.25 28.3211 24.5711 30 22.5 30H20.625V28.125H22.5C23.5355 28.125 24.375 27.2855 24.375 26.25V8.4375H20.625C19.0717 8.4375 17.8125 7.1783 17.8125 5.625V1.875H7.5C6.46447 1.875 5.625 2.71447 5.625 3.75V20.625H3.75V3.75C3.75 1.67893 5.42893 0 7.5 0H17.8125L26.25 8.4375ZM12.1355 28.6677C12.011 28.4041 11.9414 28.1239 11.9268 27.8273H13.3605C13.3861 27.9701 13.4392 28.1038 13.5198 28.2283C13.6003 28.3491 13.7065 28.4553 13.8384 28.5469C13.9702 28.6384 14.1259 28.7099 14.3053 28.7611C14.4847 28.8124 14.6843 28.838 14.9041 28.838C15.2117 28.838 15.4698 28.7941 15.6786 28.7062C15.891 28.6183 16.0503 28.4974 16.1565 28.3436C16.2627 28.1862 16.3158 28.0049 16.3158 27.7998C16.3158 27.5398 16.2206 27.3366 16.0302 27.1901C15.8397 27.0399 15.5504 26.9191 15.1622 26.8275L14.0032 26.5584C13.615 26.4705 13.2781 26.3368 12.9924 26.1574C12.7068 25.9779 12.4871 25.749 12.3333 25.4707C12.1794 25.1924 12.1025 24.8646 12.1025 24.4874C12.1025 24.0297 12.2216 23.6305 12.4596 23.2899C12.6976 22.9494 13.0272 22.6857 13.4484 22.4989C13.8695 22.3121 14.3547 22.2188 14.9041 22.2188C15.4753 22.2188 15.9624 22.314 16.3652 22.5044C16.7717 22.6948 17.0848 22.9512 17.3046 23.2734C17.528 23.5921 17.6525 23.9454 17.6781 24.3336H16.2719C16.2389 24.1542 16.1638 23.9931 16.0466 23.8502C15.9331 23.7074 15.7793 23.5939 15.5852 23.5097C15.3911 23.4254 15.1604 23.3833 14.8931 23.3833C14.4866 23.3833 14.1661 23.4785 13.9318 23.669C13.7011 23.8557 13.5857 24.0956 13.5857 24.3886C13.5857 24.6156 13.6754 24.8024 13.8549 24.9489C14.0343 25.0953 14.287 25.2052 14.6129 25.2785L15.7775 25.5476C16.184 25.6392 16.5374 25.771 16.8376 25.9431C17.1379 26.1116 17.3723 26.335 17.5408 26.6133C17.7092 26.8916 17.7935 27.2413 17.7935 27.6625C17.7935 28.1276 17.6763 28.5377 17.4419 28.893C17.2112 29.2445 16.8743 29.5192 16.4312 29.7169C15.9917 29.9147 15.4552 30.0136 14.8217 30.0136C14.3456 30.0136 13.9299 29.9568 13.5747 29.8433C13.2195 29.7297 12.921 29.5723 12.6793 29.3709C12.4413 29.1658 12.26 28.9314 12.1355 28.6677ZM6.61377 22.3726H4.93835L3.39478 25.0697H3.32886L1.7688 22.3726H0.0219727L2.32361 26.0914L0 29.8707H1.61499L3.2135 27.2175H3.27942L4.87244 29.8707H6.57532L4.22424 26.1354L6.61377 22.3726ZM11.7257 28.6073H8.54517V22.3726H7.06201V29.8707H11.7257V28.6073Z" fill="#E0AB9A"/>
</svg>
